<svg xmlns="http://www.w3.org/2000/svg" viewBox="0 0 1200 630">
  <defs>
    <linearGradient id="bg" x1="0%" y1="0%" x2="100%" y2="100%">
      <stop offset="0%" style="stop-color:#08080f"/>
      <stop offset="100%" style="stop-color:#11111c"/>
    </linearGradient>
    <linearGradient id="accent" x1="0%" y1="0%" x2="100%" y2="100%">
      <stop offset="0%" style="stop-color:#7c6aff"/>
      <stop offset="100%" style="stop-color:#ff6af0"/>
    </linearGradient>
    <radialGradient id="glow" cx="50%" cy="30%" r="50%">
      <stop offset="0%" style="stop-color:#7c6aff;stop-opacity:0.2"/>
      <stop offset="100%" style="stop-color:#7c6aff;stop-opacity:0"/>
    </radialGradient>
  </defs>
  <rect width="1200" height="630" fill="url(#bg)"/>
  <rect width="1200" height="630" fill="url(#glow)"/>
  <!-- Grid dots -->
  <circle cx="60" cy="63" r="1" fill="#7c6aff" opacity="0.15"/><circle cx="60" cy="126" r="1" fill="#7c6aff" opacity="0.15"/><circle cx="60" cy="189" r="1" fill="#7c6aff" opacity="0.15"/><circle cx="60" cy="252" r="1" fill="#7c6aff" opacity="0.15"/><circle cx="60" cy="315" r="1" fill="#7c6aff" opacity="0.15"/><circle cx="60" cy="378" r="1" fill="#7c6aff" opacity="0.15"/><circle cx="60" cy="441" r="1" fill="#7c6aff" opacity="0.15"/><circle cx="60" cy="504" r="1" fill="#7c6aff" opacity="0.15"/><circle cx="60" cy="567" r="1" fill="#7c6aff" opacity="0.15"/><circle cx="60" cy="630" r="1" fill="#7c6aff" opacity="0.15"/><circle cx="120" cy="63" r="1" fill="#7c6aff" opacity="0.15"/><circle cx="120" cy="126" r="1" fill="#7c6aff" opacity="0.15"/><circle cx="120" cy="189" r="1" fill="#7c6aff" opacity="0.15"/><circle cx="120" cy="252" r="1" fill="#7c6aff" opacity="0.15"/><circle cx="120" cy="315" r="1" fill="#7c6aff" opacity="0.15"/><circle cx="120" cy="378" r="1" fill="#7c6aff" opacity="0.15"/><circle cx="120" cy="441" r="1" fill="#7c6aff" opacity="0.15"/><circle cx="120" cy="504" r="1" fill="#7c6aff" opacity="0.15"/><circle cx="120" cy="567" r="1" fill="#7c6aff" opacity="0.15"/><circle cx="120" cy="630" r="1" fill="#7c6aff" opacity="0.15"/><circle cx="180" cy="63" r="1" fill="#7c6aff" opacity="0.15"/><circle cx="180" cy="126" r="1" fill="#7c6aff" opacity="0.15"/><circle cx="180" cy="189" r="1" fill="#7c6aff" opacity="0.15"/><circle cx="180" cy="252" r="1" fill="#7c6aff" opacity="0.15"/><circle cx="180" cy="315" r="1" fill="#7c6aff" opacity="0.15"/><circle cx="180" cy="378" r="1" fill="#7c6aff" opacity="0.15"/><circle cx="180" cy="441" r="1" fill="#7c6aff" opacity="0.15"/><circle cx="180" cy="504" r="1" fill="#7c6aff" opacity="0.15"/><circle cx="180" cy="567" r="1" fill="#7c6aff" opacity="0.15"/><circle cx="180" cy="630" r="1" fill="#7c6aff" opacity="0.15"/><circle cx="240" cy="63" r="1" fill="#7c6aff" opacity="0.15"/><circle cx="240" cy="126" r="1" fill="#7c6aff" opacity="0.15"/><circle cx="240" cy="189" r="1" fill="#7c6aff" opacity="0.15"/><circle cx="240" cy="252" r="1" fill="#7c6aff" opacity="0.15"/><circle cx="240" cy="315" r="1" fill="#7c6aff" opacity="0.15"/><circle cx="240" cy="378" r="1" fill="#7c6aff" opacity="0.15"/><circle cx="240" cy="441" r="1" fill="#7c6aff" opacity="0.15"/><circle cx="240" cy="504" r="1" fill="#7c6aff" opacity="0.15"/><circle cx="240" cy="567" r="1" fill="#7c6aff" opacity="0.15"/><circle cx="240" cy="630" r="1" fill="#7c6aff" opacity="0.15"/><circle cx="300" cy="63" r="1" fill="#7c6aff" opacity="0.15"/><circle cx="300" cy="126" r="1" fill="#7c6aff" opacity="0.15"/><circle cx="300" cy="189" r="1" fill="#7c6aff" opacity="0.15"/><circle cx="300" cy="252" r="1" fill="#7c6aff" opacity="0.15"/><circle cx="300" cy="315" r="1" fill="#7c6aff" opacity="0.15"/><circle cx="300" cy="378" r="1" fill="#7c6aff" opacity="0.15"/><circle cx="300" cy="441" r="1" fill="#7c6aff" opacity="0.15"/><circle cx="300" cy="504" r="1" fill="#7c6aff" opacity="0.15"/><circle cx="300" cy="567" r="1" fill="#7c6aff" opacity="0.15"/><circle cx="300" cy="630" r="1" fill="#7c6aff" opacity="0.15"/><circle cx="360" cy="63" r="1" fill="#7c6aff" opacity="0.15"/><circle cx="360" cy="126" r="1" fill="#7c6aff" opacity="0.15"/><circle cx="360" cy="189" r="1" fill="#7c6aff" opacity="0.15"/><circle cx="360" cy="252" r="1" fill="#7c6aff" opacity="0.15"/><circle cx="360" cy="315" r="1" fill="#7c6aff" opacity="0.15"/><circle cx="360" cy="378" r="1" fill="#7c6aff" opacity="0.15"/><circle cx="360" cy="441" r="1" fill="#7c6aff" opacity="0.15"/><circle cx="360" cy="504" r="1" fill="#7c6aff" opacity="0.15"/><circle cx="360" cy="567" r="1" fill="#7c6aff" opacity="0.15"/><circle cx="360" cy="630" r="1" fill="#7c6aff" opacity="0.15"/><circle cx="420" cy="63" r="1" fill="#7c6aff" opacity="0.15"/><circle cx="420" cy="126" r="1" fill="#7c6aff" opacity="0.15"/><circle cx="420" cy="189" r="1" fill="#7c6aff" opacity="0.15"/><circle cx="420" cy="252" r="1" fill="#7c6aff" opacity="0.15"/><circle cx="420" cy="315" r="1" fill="#7c6aff" opacity="0.15"/><circle cx="420" cy="378" r="1" fill="#7c6aff" opacity="0.15"/><circle cx="420" cy="441" r="1" fill="#7c6aff" opacity="0.15"/><circle cx="420" cy="504" r="1" fill="#7c6aff" opacity="0.15"/><circle cx="420" cy="567" r="1" fill="#7c6aff" opacity="0.15"/><circle cx="420" cy="630" r="1" fill="#7c6aff" opacity="0.15"/><circle cx="480" cy="63" r="1" fill="#7c6aff" opacity="0.15"/><circle cx="480" cy="126" r="1" fill="#7c6aff" opacity="0.15"/><circle cx="480" cy="189" r="1" fill="#7c6aff" opacity="0.15"/><circle cx="480" cy="252" r="1" fill="#7c6aff" opacity="0.15"/><circle cx="480" cy="315" r="1" fill="#7c6aff" opacity="0.15"/><circle cx="480" cy="378" r="1" fill="#7c6aff" opacity="0.15"/><circle cx="480" cy="441" r="1" fill="#7c6aff" opacity="0.15"/><circle cx="480" cy="504" r="1" fill="#7c6aff" opacity="0.15"/><circle cx="480" cy="567" r="1" fill="#7c6aff" opacity="0.15"/><circle cx="480" cy="630" r="1" fill="#7c6aff" opacity="0.15"/><circle cx="540" cy="63" r="1" fill="#7c6aff" opacity="0.15"/><circle cx="540" cy="126" r="1" fill="#7c6aff" opacity="0.15"/><circle cx="540" cy="189" r="1" fill="#7c6aff" opacity="0.15"/><circle cx="540" cy="252" r="1" fill="#7c6aff" opacity="0.15"/><circle cx="540" cy="315" r="1" fill="#7c6aff" opacity="0.15"/><circle cx="540" cy="378" r="1" fill="#7c6aff" opacity="0.15"/><circle cx="540" cy="441" r="1" fill="#7c6aff" opacity="0.15"/><circle cx="540" cy="504" r="1" fill="#7c6aff" opacity="0.15"/><circle cx="540" cy="567" r="1" fill="#7c6aff" opacity="0.15"/><circle cx="540" cy="630" r="1" fill="#7c6aff" opacity="0.15"/><circle cx="600" cy="63" r="1" fill="#7c6aff" opacity="0.15"/><circle cx="600" cy="126" r="1" fill="#7c6aff" opacity="0.15"/><circle cx="600" cy="189" r="1" fill="#7c6aff" opacity="0.15"/><circle cx="600" cy="252" r="1" fill="#7c6aff" opacity="0.15"/><circle cx="600" cy="315" r="1" fill="#7c6aff" opacity="0.15"/><circle cx="600" cy="378" r="1" fill="#7c6aff" opacity="0.15"/><circle cx="600" cy="441" r="1" fill="#7c6aff" opacity="0.15"/><circle cx="600" cy="504" r="1" fill="#7c6aff" opacity="0.15"/><circle cx="600" cy="567" r="1" fill="#7c6aff" opacity="0.15"/><circle cx="600" cy="630" r="1" fill="#7c6aff" opacity="0.15"/><circle cx="660" cy="63" r="1" fill="#7c6aff" opacity="0.15"/><circle cx="660" cy="126" r="1" fill="#7c6aff" opacity="0.15"/><circle cx="660" cy="189" r="1" fill="#7c6aff" opacity="0.15"/><circle cx="660" cy="252" r="1" fill="#7c6aff" opacity="0.15"/><circle cx="660" cy="315" r="1" fill="#7c6aff" opacity="0.15"/><circle cx="660" cy="378" r="1" fill="#7c6aff" opacity="0.15"/><circle cx="660" cy="441" r="1" fill="#7c6aff" opacity="0.15"/><circle cx="660" cy="504" r="1" fill="#7c6aff" opacity="0.15"/><circle cx="660" cy="567" r="1" fill="#7c6aff" opacity="0.15"/><circle cx="660" cy="630" r="1" fill="#7c6aff" opacity="0.15"/><circle cx="720" cy="63" r="1" fill="#7c6aff" opacity="0.15"/><circle cx="720" cy="126" r="1" fill="#7c6aff" opacity="0.15"/><circle cx="720" cy="189" r="1" fill="#7c6aff" opacity="0.15"/><circle cx="720" cy="252" r="1" fill="#7c6aff" opacity="0.15"/><circle cx="720" cy="315" r="1" fill="#7c6aff" opacity="0.15"/><circle cx="720" cy="378" r="1" fill="#7c6aff" opacity="0.15"/><circle cx="720" cy="441" r="1" fill="#7c6aff" opacity="0.15"/><circle cx="720" cy="504" r="1" fill="#7c6aff" opacity="0.15"/><circle cx="720" cy="567" r="1" fill="#7c6aff" opacity="0.15"/><circle cx="720" cy="630" r="1" fill="#7c6aff" opacity="0.15"/><circle cx="780" cy="63" r="1" fill="#7c6aff" opacity="0.15"/><circle cx="780" cy="126" r="1" fill="#7c6aff" opacity="0.15"/><circle cx="780" cy="189" r="1" fill="#7c6aff" opacity="0.15"/><circle cx="780" cy="252" r="1" fill="#7c6aff" opacity="0.15"/><circle cx="780" cy="315" r="1" fill="#7c6aff" opacity="0.15"/><circle cx="780" cy="378" r="1" fill="#7c6aff" opacity="0.15"/><circle cx="780" cy="441" r="1" fill="#7c6aff" opacity="0.15"/><circle cx="780" cy="504" r="1" fill="#7c6aff" opacity="0.15"/><circle cx="780" cy="567" r="1" fill="#7c6aff" opacity="0.15"/><circle cx="780" cy="630" r="1" fill="#7c6aff" opacity="0.15"/><circle cx="840" cy="63" r="1" fill="#7c6aff" opacity="0.15"/><circle cx="840" cy="126" r="1" fill="#7c6aff" opacity="0.15"/><circle cx="840" cy="189" r="1" fill="#7c6aff" opacity="0.15"/><circle cx="840" cy="252" r="1" fill="#7c6aff" opacity="0.15"/><circle cx="840" cy="315" r="1" fill="#7c6aff" opacity="0.15"/><circle cx="840" cy="378" r="1" fill="#7c6aff" opacity="0.15"/><circle cx="840" cy="441" r="1" fill="#7c6aff" opacity="0.15"/><circle cx="840" cy="504" r="1" fill="#7c6aff" opacity="0.15"/><circle cx="840" cy="567" r="1" fill="#7c6aff" opacity="0.15"/><circle cx="840" cy="630" r="1" fill="#7c6aff" opacity="0.15"/><circle cx="900" cy="63" r="1" fill="#7c6aff" opacity="0.15"/><circle cx="900" cy="126" r="1" fill="#7c6aff" opacity="0.15"/><circle cx="900" cy="189" r="1" fill="#7c6aff" opacity="0.15"/><circle cx="900" cy="252" r="1" fill="#7c6aff" opacity="0.15"/><circle cx="900" cy="315" r="1" fill="#7c6aff" opacity="0.15"/><circle cx="900" cy="378" r="1" fill="#7c6aff" opacity="0.15"/><circle cx="900" cy="441" r="1" fill="#7c6aff" opacity="0.15"/><circle cx="900" cy="504" r="1" fill="#7c6aff" opacity="0.15"/><circle cx="900" cy="567" r="1" fill="#7c6aff" opacity="0.15"/><circle cx="900" cy="630" r="1" fill="#7c6aff" opacity="0.15"/><circle cx="960" cy="63" r="1" fill="#7c6aff" opacity="0.15"/><circle cx="960" cy="126" r="1" fill="#7c6aff" opacity="0.15"/><circle cx="960" cy="189" r="1" fill="#7c6aff" opacity="0.15"/><circle cx="960" cy="252" r="1" fill="#7c6aff" opacity="0.15"/><circle cx="960" cy="315" r="1" fill="#7c6aff" opacity="0.15"/><circle cx="960" cy="378" r="1" fill="#7c6aff" opacity="0.15"/><circle cx="960" cy="441" r="1" fill="#7c6aff" opacity="0.15"/><circle cx="960" cy="504" r="1" fill="#7c6aff" opacity="0.15"/><circle cx="960" cy="567" r="1" fill="#7c6aff" opacity="0.15"/><circle cx="960" cy="630" r="1" fill="#7c6aff" opacity="0.15"/><circle cx="1020" cy="63" r="1" fill="#7c6aff" opacity="0.15"/><circle cx="1020" cy="126" r="1" fill="#7c6aff" opacity="0.15"/><circle cx="1020" cy="189" r="1" fill="#7c6aff" opacity="0.15"/><circle cx="1020" cy="252" r="1" fill="#7c6aff" opacity="0.15"/><circle cx="1020" cy="315" r="1" fill="#7c6aff" opacity="0.15"/><circle cx="1020" cy="378" r="1" fill="#7c6aff" opacity="0.15"/><circle cx="1020" cy="441" r="1" fill="#7c6aff" opacity="0.15"/><circle cx="1020" cy="504" r="1" fill="#7c6aff" opacity="0.15"/><circle cx="1020" cy="567" r="1" fill="#7c6aff" opacity="0.15"/><circle cx="1020" cy="630" r="1" fill="#7c6aff" opacity="0.15"/><circle cx="1080" cy="63" r="1" fill="#7c6aff" opacity="0.15"/><circle cx="1080" cy="126" r="1" fill="#7c6aff" opacity="0.15"/><circle cx="1080" cy="189" r="1" fill="#7c6aff" opacity="0.15"/><circle cx="1080" cy="252" r="1" fill="#7c6aff" opacity="0.15"/><circle cx="1080" cy="315" r="1" fill="#7c6aff" opacity="0.15"/><circle cx="1080" cy="378" r="1" fill="#7c6aff" opacity="0.15"/><circle cx="1080" cy="441" r="1" fill="#7c6aff" opacity="0.15"/><circle cx="1080" cy="504" r="1" fill="#7c6aff" opacity="0.15"/><circle cx="1080" cy="567" r="1" fill="#7c6aff" opacity="0.15"/><circle cx="1080" cy="630" r="1" fill="#7c6aff" opacity="0.15"/><circle cx="1140" cy="63" r="1" fill="#7c6aff" opacity="0.15"/><circle cx="1140" cy="126" r="1" fill="#7c6aff" opacity="0.15"/><circle cx="1140" cy="189" r="1" fill="#7c6aff" opacity="0.15"/><circle cx="1140" cy="252" r="1" fill="#7c6aff" opacity="0.15"/><circle cx="1140" cy="315" r="1" fill="#7c6aff" opacity="0.15"/><circle cx="1140" cy="378" r="1" fill="#7c6aff" opacity="0.15"/><circle cx="1140" cy="441" r="1" fill="#7c6aff" opacity="0.15"/><circle cx="1140" cy="504" r="1" fill="#7c6aff" opacity="0.15"/><circle cx="1140" cy="567" r="1" fill="#7c6aff" opacity="0.15"/><circle cx="1140" cy="630" r="1" fill="#7c6aff" opacity="0.15"/><circle cx="1200" cy="63" r="1" fill="#7c6aff" opacity="0.15"/><circle cx="1200" cy="126" r="1" fill="#7c6aff" opacity="0.15"/><circle cx="1200" cy="189" r="1" fill="#7c6aff" opacity="0.15"/><circle cx="1200" cy="252" r="1" fill="#7c6aff" opacity="0.15"/><circle cx="1200" cy="315" r="1" fill="#7c6aff" opacity="0.15"/><circle cx="1200" cy="378" r="1" fill="#7c6aff" opacity="0.15"/><circle cx="1200" cy="441" r="1" fill="#7c6aff" opacity="0.15"/><circle cx="1200" cy="504" r="1" fill="#7c6aff" opacity="0.15"/><circle cx="1200" cy="567" r="1" fill="#7c6aff" opacity="0.15"/><circle cx="1200" cy="630" r="1" fill="#7c6aff" opacity="0.15"/>
  <!-- Logo mark -->
  <text x="600" y="200" text-anchor="middle" font-size="80" fill="url(#accent)" font-family="serif">✦</text>
  <!-- Title -->
  <text x="600" y="300" text-anchor="middle" font-size="72" font-weight="700" fill="#ededff" font-family="system-ui,sans-serif" letter-spacing="-2">BioLink</text>
  <!-- Subtitle -->
  <text x="600" y="370" text-anchor="middle" font-size="28" fill="#6464a0" font-family="system-ui,sans-serif">Your link in bio, elevated</text>
  <!-- URL pill -->
  <rect x="370" y="420" width="460" height="50" rx="25" fill="#181826" stroke="#7c6aff" stroke-width="1" stroke-opacity="0.4"/>
  <text x="600" y="452" text-anchor="middle" font-size="18" fill="#7c6aff" font-family="monospace">yourname.github.io/bio.html?u=you</text>
  <!-- Feature chips -->
  <rect x="180" y="520" width="120" height="36" rx="18" fill="#181826" stroke="rgba(255,255,255,0.07)" stroke-width="1"/>
  <text x="240" y="543" text-anchor="middle" font-size="14" fill="#6464a0" font-family="system-ui">🎵 Music</text>
  <rect x="320" y="520" width="120" height="36" rx="18" fill="#181826" stroke="rgba(255,255,255,0.07)" stroke-width="1"/>
  <text x="380" y="543" text-anchor="middle" font-size="14" fill="#6464a0" font-family="system-ui">📺 Video</text>
  <rect x="460" y="520" width="130" height="36" rx="18" fill="#181826" stroke="rgba(255,255,255,0.07)" stroke-width="1"/>
  <text x="525" y="543" text-anchor="middle" font-size="14" fill="#6464a0" font-family="system-ui">🖼️ Gallery</text>
  <rect x="610" y="520" width="150" height="36" rx="18" fill="#181826" stroke="rgba(255,255,255,0.07)" stroke-width="1"/>
  <text x="685" y="543" text-anchor="middle" font-size="14" fill="#6464a0" font-family="system-ui">🌐 Domain</text>
  <rect x="780" y="520" width="150" height="36" rx="18" fill="#181826" stroke="rgba(255,255,255,0.07)" stroke-width="1"/>
  <text x="855" y="543" text-anchor="middle" font-size="14" fill="#6464a0" font-family="system-ui">✨ Effects</text>
  <rect x="950" y="520" width="80" height="36" rx="18" fill="#181826" stroke="rgba(255,255,255,0.07)" stroke-width="1"/>
  <text x="990" y="543" text-anchor="middle" font-size="14" fill="#6464a0" font-family="system-ui">Free</text>
</svg>
